# xmcd CD database file
#
# Track frame offsets:
#	150
#	24464
#	57876
#	76401
#	96032
#	114294
#	134084
#	150546
#	181952
#
# Disc length: 2620 seconds
#
# Revision: 0
# Processed by: cddbd v1.5.2PL0 Copyright (c) Steve Scherf et al.
# Submitted via: CDex 1.51
#
DISCID=6a0a3a09
DTITLE=Sabine Pothier - Destiny
DYEAR=2017
DGENRE=Jazz
TTITLE0=Humpty Dumpty
TTITLE1=Blue Jay
TTITLE2=Decision
TTITLE3=4 Chick
TTITLE4=God Rest Ye Merry Gentlemen
TTITLE5=Chasing The Dream
TTITLE6=Good Thoughts
TTITLE7='Round Midnight
TTITLE8=Little Funk Tune
EXTD=YEAR: 2017
EXTT0=
EXTT1=
EXTT2=
EXTT3=
EXTT4=
EXTT5=
EXTT6=
EXTT7=
EXTT8=
PLAYORDER=
